<svg xmlns="http://www.w3.org/2000/svg" width="1em" height="1em" viewBox="0 0 512 512">
    <path fill="currentColor"
        d="m 314 29.72 l -11.4 11.35 l 32.5 32.54 l 11.4 -11.39 z m 38.3 2.74 c -3.5 -0.04 -6.8 0.1 -9.6 0.39 c 0 0 -0.1 0.01 -0.1 0.02 l 61.9 61.87 l 30.8 -30.82 c -19.8 -17.03 -43.2 -26 -63.5 -29.57 c -5.6 -0.99 -11 -1.56 -15.9 -1.79 c -1.2 -0.05 -2.4 -0.09 -3.6 -0.1 m -51.1 32.69 L 65.15 301.3 L 108.9 345 l 4.9 -4.9 l 6.4 -6.3 l 58 58 l -11.3 11.3 l 43.8 43.8 l 236.2 -236.1 z m 58.1 9.83 l -11.4 11.39 l 77.7 77.73 l 11.4 -11.4 z m 88.8 1.7 l -30.8 30.82 l 61.9 62 v -0.2 c 0.8 -7.6 0.5 -17.9 -1.5 -29.1 c -3.6 -20.3 -12.6 -43.73 -29.6 -63.52 m 1.7 88.82 l -11.4 11.4 l 32.5 32.5 l 11.4 -11.4 z z M 40.94 302.6 L 29.7 314 l 55.14 55.1 l 11.31 -11.3 z m -8.08 40 c 0 0.1 -0.01 0.1 -0.01 0.1 c -0.78 7.6 -0.48 17.9 1.5 29.1 c 3.98 22.6 14.65 49.1 35.68 70.1 c 21.03 21.1 47.57 31.8 70.17 35.8 c 11.2 2 21.5 2.3 29.1 1.5 h 0.2 l -39.4 -39.4 l -9.9 9.9 l -57.96 -57.9 l 9.9 -9.9 z m 87.34 16.6 l -32.5 32.6 l 32.5 32.5 l 32.6 -32.5 z m 34 56.6 l -11.4 11.3 l 55.2 55.2 l 11.4 -11.3 z" />
</svg>