<?xml version="1.0" encoding="iso-8859-1"?>
<!-- Uploaded to: SVG Repo, www.svgrepo.com, Generator: SVG Repo Mixer Tools -->
<svg fill="#000000" height="800px" width="800px" version="1.1" id="Layer_1" xmlns="http://www.w3.org/2000/svg" xmlns:xlink="http://www.w3.org/1999/xlink" 
	 viewBox="0 0 512 512" xml:space="preserve">
<g>
	<g>
		<path d="M506.741,84.812L427.188,5.259c-7.009-7.011-18.377-7.01-25.389-0.001l-30.468,30.468
			c-23.011,23.011-27.7,57.49-14.109,85.199L152.766,325.38l-38.396-38.396c-4.402-4.401-11.538-4.401-15.941,0l-63.685,63.685
			C6.335,379.078-5.762,419.938,2.6,459.235l6.877,32.315c1.171,5.502,5.469,9.8,10.972,10.971l32.315,6.877
			c39.298,8.364,80.158-3.735,108.568-32.145l63.685-63.685c4.402-4.401,4.401-11.538,0-15.941l-38.396-38.396l204.429-204.428
			c27.281,13.445,61.82,9.27,85.226-14.136l30.468-30.468C513.752,103.189,513.752,91.823,506.741,84.812z M450.884,115.28
			c-14.958,14.958-39.177,14.975-54.152,0.012c-0.004-0.004-0.007-0.008-0.011-0.012c-0.004-0.004-0.008-0.007-0.012-0.011
			c-14.922-14.934-14.918-39.224,0.011-54.152l17.773-17.773l54.164,54.164L450.884,115.28z"/>
	</g>
</g>
</svg>